<svg width="127" height="69" viewBox="0 0 127 69" fill="none" xmlns="http://www.w3.org/2000/svg">
<mask id="mask0_110_33248" style="mask-type:luminance" maskUnits="userSpaceOnUse" x="0" y="6" width="117" height="63">
<path d="M0 6.25995L23.3909 68.2H92.664L116.055 6.25995H0Z" fill="white"/>
</mask>
<g mask="url(#mask0_110_33248)">
<path d="M116.055 6.25995H0V68.2H116.055V6.25995Z" fill="url(#paint0_linear_110_33248)"/>
</g>
<mask id="mask1_110_33248" style="mask-type:luminance" maskUnits="userSpaceOnUse" x="0" y="0" width="127" height="6">
<path d="M9.94708 0.200012L0 5.2754H116.598L126.528 0.200012H9.94708Z" fill="white"/>
</mask>
<g mask="url(#mask1_110_33248)">
<path d="M126.528 0.200012H0V5.2754H126.528V0.200012Z" fill="url(#paint1_linear_110_33248)"/>
</g>
<mask id="mask2_110_33248" style="mask-type:luminance" maskUnits="userSpaceOnUse" x="93" y="1" width="34" height="68">
<path d="M117.26 6.03922L93.7334 68.2L103.052 63.481L126.528 1.35425L117.26 6.03922Z" fill="white"/>
</mask>
<g mask="url(#mask2_110_33248)">
<path d="M95.6695 -6.34762L78.0566 64.2936L124.618 75.9027L142.231 5.26149L95.6695 -6.34762Z" fill="url(#paint2_linear_110_33248)"/>
</g>
<path d="M57.4252 33.3513L54.0303 33.8605V35.2524H57.4252V33.3513Z" fill="white"/>
<path d="M48.0039 33.7926V36.0842H47.3589V38.155H48.0039V41.6518C48.0039 42.5175 48.6659 43.2135 49.6335 43.3492C50.5331 43.5529 51.6365 43.519 52.7228 43.3492V41.3123C51.8911 41.3802 51.4837 41.3463 51.3988 40.4466V38.172H52.7228V36.1011H51.3988V33.3682L48.0039 33.8096V33.7926Z" fill="white"/>
<path d="M86.1798 33.8605V36.0842H85.5518V38.155H86.1798V41.6518C86.1798 42.5175 86.8418 43.2135 87.8094 43.3492C88.709 43.5529 89.8124 43.519 90.8987 43.3492V41.3123C90.067 41.3802 89.6596 41.3463 89.5917 40.4466V38.172H90.8987V36.1011H89.5917V33.3682L86.1968 33.8775L86.1798 33.8605Z" fill="white"/>
<path d="M57.5267 36.0672H54.1318V43.3493H57.5267V36.0672Z" fill="white"/>
<path d="M81.3423 43.3493H84.7372V33.3513L81.3423 33.8605V43.3493Z" fill="white"/>
<path d="M75.1636 35.6259C72.3118 35.6938 69.9693 36.6952 70.0033 39.6488C70.0033 42.8061 72.7192 43.6378 75.2314 43.6378C76.9968 43.7057 79.9164 43.1795 80.4257 41.1086H76.9119C76.5045 41.6518 75.8086 41.6518 75.3672 41.7027H75.2314C74.5864 41.7027 73.3303 41.3463 73.4491 40.4297H80.4766V40.0902C80.4426 36.865 77.9304 35.6259 75.1466 35.6598M75.2145 38.851H73.2794C73.517 37.8156 74.4846 37.544 75.2145 37.544H75.2314C75.9614 37.544 77.0817 37.8495 77.1156 38.851H75.2145Z" fill="white"/>
<path d="M30.4694 35.6259C26.8708 35.6598 25.2073 37.1536 25.1733 39.6488C25.2752 42.3478 27.1424 43.553 30.4694 43.5869H30.6391C33.9661 43.4851 35.5787 42.212 35.7315 39.7846C35.7315 36.9159 33.7625 35.6598 30.4694 35.6259ZM30.4694 41.4651C29.4849 41.4651 28.6701 40.6503 28.6701 39.6658C28.6701 38.6813 29.4849 37.8325 30.4694 37.8325C31.4539 37.8325 32.3026 38.6473 32.3026 39.6658C32.3026 40.6843 31.4879 41.4651 30.4694 41.4651Z" fill="white"/>
<path d="M42.8776 35.6938C42.4533 35.6598 42.0459 35.6938 41.6385 35.7956C40.9425 35.9314 40.2805 36.22 39.8052 36.5934V35.6089L36.5801 36.4067V46.3707L39.941 45.5899V42.7721C40.3145 43.0098 40.9425 43.3153 41.6385 43.4681C41.978 43.536 42.3684 43.5699 42.7079 43.5699C45.2031 43.502 46.9006 42.0762 46.8666 39.6319C46.9345 37.0687 44.9994 35.7956 42.8946 35.7277M41.6555 41.4991C40.6709 41.4991 39.8562 40.6843 39.8562 39.6998C39.8562 38.7152 40.6709 37.8665 41.6555 37.8665C42.64 37.8665 43.4887 38.6813 43.4887 39.6998C43.4887 40.7182 42.6739 41.4991 41.6555 41.4991Z" fill="white"/>
<path d="M65.0804 35.6937C64.707 35.6937 64.3505 35.7277 64.0111 35.7956C63.349 35.9314 62.7719 36.186 62.3136 36.4915V33.3513L58.9526 33.8605V43.3323H62.1439V42.6024C62.6361 42.9588 63.2472 43.2983 64.0111 43.4341C64.3675 43.502 64.741 43.536 65.1653 43.536C67.2702 43.6378 69.1034 42.3987 69.2392 39.8016C69.3071 37.1366 67.5418 35.6428 65.0804 35.6768M64.028 41.4481C63.0435 41.4481 62.2287 40.6333 62.2287 39.6488C62.2287 38.6643 63.0435 37.8156 64.028 37.8156C65.0126 37.8156 65.8613 38.6303 65.8613 39.6488C65.8613 40.6673 65.0465 41.4481 64.028 41.4481Z" fill="white"/>
<path d="M41.5539 31.484H74.5524L79.5599 18.2269H36.5464L41.5539 31.484Z" fill="#E30613"/>
<path d="M69.1545 45.7427H46.9009L50.8899 56.2499H65.1994L69.1545 45.7427Z" fill="#E30613"/>
<path d="M35.1035 17.2424L40.4844 31.4841H41.5538L36.5464 18.227H79.5598L74.5523 31.4841H75.5878L80.9857 17.2424H35.1035Z" fill="white"/>
<path d="M50.8897 56.2499L46.9007 45.7427H45.8652L50.1937 57.2344H65.8612L70.1897 45.7427H69.1543L65.1992 56.2499H50.8897Z" fill="white"/>
<path d="M44.0151 25.6109C44.0151 26.5954 44.8299 27.4102 45.8144 27.4102C46.799 27.4102 47.6477 26.5954 47.6477 25.6109C47.6477 24.6264 46.8329 23.7776 45.8144 23.7776C44.796 23.7776 44.0151 24.5924 44.0151 25.6109Z" fill="white"/>
<path d="M50.126 25.6109C50.126 26.5954 50.9408 27.4102 51.9253 27.4102C52.9098 27.4102 53.7585 26.5954 53.7585 25.6109C53.7585 24.6264 52.9437 23.7776 51.9253 23.7776C50.9068 23.7776 50.126 24.5924 50.126 25.6109Z" fill="white"/>
<path d="M56.2539 25.6109C56.2539 26.5954 57.0687 27.4102 58.0532 27.4102C59.0377 27.4102 59.8865 26.5954 59.8865 25.6109C59.8865 24.6264 59.0717 23.7776 58.0532 23.7776C57.0347 23.7776 56.2539 24.5924 56.2539 25.6109Z" fill="white"/>
<path d="M62.3647 25.6109C62.3647 26.5954 63.1795 27.4102 64.164 27.4102C65.1486 27.4102 65.9973 26.5954 65.9973 25.6109C65.9973 24.6264 65.1825 23.7776 64.164 23.7776C63.1456 23.7776 62.3647 24.5924 62.3647 25.6109Z" fill="white"/>
<path d="M68.4756 25.6109C68.4756 26.5954 69.2904 27.4102 70.2749 27.4102C71.2594 27.4102 72.1081 26.5954 72.1081 25.6109C72.1081 24.6264 71.2934 23.7776 70.2749 23.7776C69.2564 23.7776 68.4756 24.5924 68.4756 25.6109Z" fill="white"/>
<defs>
<linearGradient id="paint0_linear_110_33248" x1="57.6829" y1="68.0551" x2="57.6829" y2="6.11499" gradientUnits="userSpaceOnUse">
<stop stop-color="#003358"/>
<stop offset="0.2" stop-color="#00406D"/>
<stop offset="0.51" stop-color="#005188"/>
<stop offset="0.79" stop-color="#005B98"/>
<stop offset="1" stop-color="#005F9E"/>
</linearGradient>
<linearGradient id="paint1_linear_110_33248" x1="0.370724" y1="2.12153" x2="126.899" y2="2.12153" gradientUnits="userSpaceOnUse">
<stop stop-color="#003358"/>
<stop offset="0.2" stop-color="#00406D"/>
<stop offset="0.51" stop-color="#005188"/>
<stop offset="0.79" stop-color="#005B98"/>
<stop offset="1" stop-color="#005F9E"/>
</linearGradient>
<linearGradient id="paint2_linear_110_33248" x1="101.286" y1="67.8262" x2="117.955" y2="0.973176" gradientUnits="userSpaceOnUse">
<stop stop-color="#005F9E"/>
<stop offset="0.22" stop-color="#005B98"/>
<stop offset="0.48" stop-color="#005289"/>
<stop offset="0.78" stop-color="#004270"/>
<stop offset="1" stop-color="#003358"/>
</linearGradient>
</defs>
</svg>
