<?xml version="1.0" encoding="UTF-8"?>
<svg id="Hintergrund" xmlns="http://www.w3.org/2000/svg" version="1.1" viewBox="0 0 1194 293">
  <!-- Generator: Adobe Illustrator 29.2.1, SVG Export Plug-In . SVG Version: 2.1.0 Build 116)  -->
  <path d="M209.711,192.889c24.596-8.63,45.309-27.186,45.309-63.002,0-45.741-37.11-71.632-90.618-71.632H18.117v105.29H0v43.583h18.117v82.42h52.645v-82.42h48.761c46.604,0,81.988,25.028,85.44,82.42h54.803c-5.178-49.625-17.261-79.399-50.056-96.66h0ZM70.762,163.546v-60.412h90.618c25.459,0,40.131,10.788,40.131,30.206s-14.672,30.206-40.131,30.206h-90.618ZM459.559,0h66.454v38.405h-66.454V0ZM378.865,0h66.454v38.405h-66.454V0ZM983.851,58.255h53.94v184.691h156.209v46.604h-210.149V58.255ZM780.176,58.255h-119.962v231.295h119.962c81.988,0,133.339-45.309,133.339-115.647,0-70.768-51.35-115.647-133.339-115.647ZM780.176,243.808h-67.317V103.133h66.885c50.487,0,79.83,27.617,79.83,70.337,0,42.289-29.343,70.337-79.399,70.337h0ZM452.654,54.803c-79.831,0-137.654,50.056-137.654,119.098s57.823,119.098,137.654,119.098c79.399,0,137.222-50.056,137.222-119.098s-57.823-119.098-137.222-119.098ZM452.654,246.398c-48.33,0-82.851-28.912-82.851-72.495,0-44.015,34.521-72.495,82.851-72.495,47.898,0,82.42,28.48,82.42,72.495,0,43.583-34.521,72.495-82.42,72.495Z" style="fill:#1C3828"/>
  <metadata>
    <sfw xmlns="http://ns.adobe.com/SaveForWeb/1.0/">
      <slices/>
      <sliceSourceBounds x="0" y="0" width="1194" height="293" bottomLeftOrigin="true"/>
    </sfw>
  </metadata>
</svg>