<?xml version="1.0" encoding="UTF-8"?>
<svg xmlns="http://www.w3.org/2000/svg" id="Ebene_2" viewBox="0 0 386.41 113.58">
  <defs>
    <style>.cls-1{font-family:Avenir-Roman, Avenir;font-size:24.3px;}.cls-1,.cls-2{fill:#fff;}.cls-3{letter-spacing:.02em;}.cls-4{letter-spacing:-.09em;}.cls-5{fill:#4b9b67;}.cls-6{letter-spacing:.03em;}</style>
  </defs>
  <g id="Ebene_1-2">
    <path class="cls-2" d="m230.05,51.15c-6.01,0-11.88.12-18.21.12.13-2.32-.12-4.69-.42-6.08-.67-3.08-2.82-4.6-6.95-4.76-2.37-.09-5.35,1.23-6.4,3.07-1.2,2.1-1.51,5.83.8,8.69,2.18,2.7,5.94,4.21,9.17,5.98,4.95,2.7,10.25,4.82,14.97,7.85,6.57,4.23,9.94,10.44,9.04,18.48-.91,8.15-5.04,15.32-12.48,18.11-15.5,5.83-28.23.34-29.37-.04-8.96-3.46-12.51-11.95-12.62-19.48-.02-1.38.14-2.95.14-2.95,5.59-.2,13.74-.11,19.49-.11,0,0-.16,3.13-.1,4.39.15,3.23,1.67,6.63,5.69,7.08,3.9.44,7.08-.04,8.99-2.09,2.74-2.93,1.8-8.19-1.26-10.96-2.57-2.33-5.75-4.08-8.86-5.72-3.99-2.11-8.24-3.71-12.25-5.78-7.62-3.93-12.45-9.74-11.66-18.83.77-8.92,6.33-14.53,14.34-16.96,9.53-2.89,19.22-2.51,28.45,1.95,7.02,3.39,10.55,10.22,9.49,18.05Z"></path>
    <text class="cls-1" transform="translate(255.05 47.21)">
      <tspan class="cls-3">
        <tspan x="0" y="0">Sustainable</tspan>
      </tspan>
      <tspan class="cls-4" x="0" y="28.35">T</tspan>
      <tspan class="cls-3" x="11.86" y="28.35">ex</tspan>
      <tspan class="cls-6" x="38.73" y="28.35">t</tspan>
      <tspan class="cls-3" x="47.92" y="28.35">ile</tspan>
      <tspan class="cls-3" x="0" y="56.7">Solu</tspan>
      <tspan class="cls-6" x="49.72" y="56.7">t</tspan>
      <tspan class="cls-3" x="58.9" y="56.7">ions</tspan>
    </text>
    <polygon class="cls-2" points="0 31.01 19.46 31.01 29.85 85.76 44.7 31.01 64.32 31.01 77.68 85.76 89.39 31.01 107.54 31.01 87.91 103.08 68.12 103.08 53.77 53.6 39.25 103.08 18.31 103.08 0 31.01"></polygon>
    <polygon class="cls-5" points="112.65 0 134.58 0 134.58 59.05 151.74 30.18 173.84 30.18 152.89 63.5 176.64 103.91 152.23 103.91 134.58 67.95 134.58 103.91 112.65 103.91 112.65 0"></polygon>
  </g>
</svg>
