<?xml version="1.0" encoding="UTF-8" standalone="no"?>
<!-- Created with Inkscape (http://www.inkscape.org/) -->

<svg
   width="147.91298mm"
   height="52.530872mm"
   viewBox="0 0 147.91298 52.530873"
   version="1.1"
   id="svg1"
   xml:space="preserve"
   xmlns:inkscape="http://www.inkscape.org/namespaces/inkscape"
   xmlns:sodipodi="http://sodipodi.sourceforge.net/DTD/sodipodi-0.dtd"
   xmlns="http://www.w3.org/2000/svg"
   xmlns:svg="http://www.w3.org/2000/svg"><sodipodi:namedview
     id="namedview1"
     pagecolor="#ffffff"
     bordercolor="#cccccc"
     borderopacity="1"
     inkscape:showpageshadow="0"
     inkscape:pageopacity="1"
     inkscape:pagecheckerboard="0"
     inkscape:deskcolor="#d1d1d1"
     inkscape:document-units="mm"><inkscape:page
       x="1.2667628e-06"
       y="9.1604034e-06"
       width="147.91298"
       height="52.530872"
       id="page3"
       margin="0"
       bleed="0" /></sodipodi:namedview><defs
     id="defs1" /><g
     id="g1"
     inkscape:groupmode="layer"
     inkscape:label="1"
     transform="matrix(0.26458333,0,0,0.26458334,-33.430392,-327.54977)"><path
       id="path1"
       d="m 126.35111,1277.0241 32.65853,-32.3672 v 159.8336 h 139.64213 l -31.8628,32.0347 H 126.35111 Z"
       style="fill:#ed1c24;fill-opacity:1;fill-rule:nonzero;stroke:none;stroke-width:1.33333"
       inkscape:export-filename="link-logo.svg"
       inkscape:export-xdpi="96"
       inkscape:export-ydpi="96" /><path
       id="path2"
       d="m 191.04324,1244.6569 h 33.36814 v 98.4361 h 74.74466 v 28.6966 h -74.74466 -15.34947 -18.01867 z"
       style="fill:#231f20;fill-opacity:1;fill-rule:nonzero;stroke:none;stroke-width:1.33333" /><path
       id="path3"
       d="m 312.83697,1279.0261 h 32.70094 v 92.7635 h -32.70094 z"
       style="fill:#231f20;fill-opacity:1;fill-rule:nonzero;stroke:none;stroke-width:1.33333" /><path
       id="path4"
       d="m 312.83697,1244.6569 h 32.70094 v 22.6905 h -32.70094 z"
       style="fill:#231f20;fill-opacity:1;fill-rule:evenodd;stroke:none;stroke-width:1.33333" /><path
       id="path5"
       d="m 462.3263,1371.456 h 32.3672 v -126.7991 h -33.03453 v 78.4151 l -60.72987,-78.0814 h -33.03466 v 126.799 h 33.03466 v -79.75 z"
       style="fill:#231f20;fill-opacity:1;fill-rule:evenodd;stroke:none;stroke-width:1.33333" /><path
       id="path6"
       d="m 517.7175,1371.7896 v -126.799 h 33.36787 v 52.0544 l 39.70866,-52.3881 h 41.37627 l -50.386,59.7291 55.0576,67.4036 h -42.71133 l -43.3788,-56.392 v 56.392 z"
       style="fill:#231f20;fill-opacity:1;fill-rule:evenodd;stroke:none;stroke-width:1.33333" /><path
       id="path7"
       d="m 653.3591,1272.9364 v -24.0247 h 14.26466 c 0,0 6.67347,-0.334 6.67347,7.2572 0,7.5915 -6.67347,7.1741 -6.67347,7.1741 l 5.67294,9.3431 h -5.172 l -5.25574,-9.2596 h -4.6716 v 9.4264 l -4.83826,0.084 z m 5.0052,-13.7643 v -6.2567 h 7.67453 c 0,0 3.42027,-0.2502 3.42027,3.4203 0,3.6705 -3.25334,2.8364 -3.25334,2.8364 z m 22.488,1.6681 c 0,10.1167 -8.20054,18.3174 -18.31707,18.3174 -10.11653,0 -18.31707,-8.2007 -18.31707,-18.3174 0,-10.1158 8.20054,-18.3166 18.31707,-18.3166 10.11653,0 18.31707,8.2008 18.31707,18.3166 z m -41.17414,0 c 0,-12.6236 10.23334,-22.8568 22.85707,-22.8568 12.624,0 22.85707,10.2332 22.85707,22.8568 0,12.6242 -10.23307,22.8575 -22.85707,22.8575 -12.62373,0 -22.85707,-10.2333 -22.85707,-22.8575 z"
       style="fill:#231f20;fill-opacity:1;fill-rule:evenodd;stroke:none;stroke-width:1.33333" /></g></svg>
