<svg enable-background="new 0 0 428.3 152.9" viewBox="0 0 428.3 152.9" xmlns="http://www.w3.org/2000/svg"><g fill="#00a6ce"><path d="m114.3 55.4c-1-2.5-2.4-4.8-4.3-6.7-1.8-1.9-4.1-3.5-6.7-4.7s-5.5-1.8-8.6-1.8h-11.7c-1.4 0-3 .3-4.7.8s-3.4 1.2-5 2c-1.6.9-3.1 1.8-4.5 2.9-1.3 1.1-2.5 2.2-3.3 3.4-.6-.9-1.4-1.9-2.4-2.9-1.1-1.1-2.3-2.1-3.8-3s-3.2-1.7-5.2-2.3-4.2-.9-6.7-.9h-17.1c-2.7 0-5.4.6-7.9 1.8s-4.8 2.8-6.7 4.7c-2 1.9-3.5 4.2-4.7 6.7s-1.8 5.1-1.8 7.9v44.3h20.1v-30.4c0-3.2.4-6 1.1-8.4s1.7-4.3 3-5.9c1.3-1.5 2.7-2.7 4.5-3.4 1.7-.8 3.6-1.1 5.7-1.1s3.7.5 4.9 1.7c1.2 1.1 2 2.4 2.6 3.8s.9 2.8 1.1 4.1c.1 1.3.2 2.2.2 2.7v37.1h20.3v-30.6c0-6.4 1.3-11.2 3.9-14.3s6-4.6 10.1-4.6c2.1 0 3.8.5 4.9 1.7 1.2 1.1 2 2.4 2.6 3.8s.9 2.8 1.1 4.1c.1 1.3.2 2.2.2 2.7v37.1h20.3v-44.4c0-2.7-.5-5.3-1.5-7.9z"/><path d="m173 43.9-13 41.4h-.2l-13.8-41.4h-23.6l24.8 62.9c0 1.3-.1 2.7-.3 4.2s-.6 3-1.4 4.3c-.8 1.4-1.9 2.5-3.4 3.6-1.5 1-3.6 1.6-6.2 1.9-.6.1-1.1.1-1.5.1-.5 0-2.2.1-2.6.1l.1 13.5c1.4.1 2.8 0 4.3-.1s2.9-.1 4.4-.1c5 0 9.2-.9 12.5-2.6 3.3-1.8 6-4.1 8.2-7.1 2.2-2.9 4.1-6.3 5.7-10.1 1.5-3.8 3.1-7.7 4.7-11.7l23.3-59h-22z"/><path d="m249 75.9c-2.8-3.2-7.3-5.5-13.5-7.1-2.9-.7-5.4-1.3-7.3-1.9s-3.4-1.1-4.4-1.6c-1.9-.9-2.8-2.1-2.8-3.6 0-1.9.8-3.2 2.5-4.1s4.3-1.3 7.9-1.3c2.9 0 6 .3 9.2 1 3 .7 5.6 1.6 7.7 2.7l1.2-14.5c-1.3-.4-2.6-.8-4.2-1.1-1.5-.3-3.2-.6-5.1-1-3.7-.6-7.4-1-11-1-8 0-14.7 1.8-20 5.3s-8 8.5-8 14.9c0 5.8 1.8 10 5.3 12.8 3.5 2.7 7.8 4.6 13.1 5.8 2.4.5 4.5 1.1 6.2 1.7s3 1.2 4 1.7c1.9 1.2 2.8 2.6 2.8 4.5 0 2.3-.9 3.9-2.8 4.7-1.9.9-4.4 1.4-7.5 1.4-4.3 0-8.4-.7-12.2-2-1.9-.7-3.4-1.2-4.6-1.6s-2.1-.8-2.6-1l-1.3 15.3c1.2.5 2.7.9 4.3 1.3s3.4.7 5.4 1 4 .5 6 .7 4.1.2 6.2.2c9.2 0 16.4-1.8 21.6-5.5 5.3-3.7 7.9-8.9 7.9-15.5.3-5-1.1-9.1-4-12.2z"/><path d="m317.4 51.8c-3.1-3.1-6.7-5.4-10.6-7-4-1.6-8.5-2.4-13.6-2.4s-9.6.8-13.6 2.4-7.6 3.9-10.7 7c-6.1 6-9.2 14.1-9.2 24.2s3 18.1 9.2 24.1c6.1 6 14.2 9.1 24.3 9.1s18.2-3 24.2-9.1c6.1-6 9.2-14 9.2-24.1s-3.1-18.2-9.2-24.2zm-13.7 37.7c-2.5 3.4-6 5.1-10.5 5.1s-8.1-1.7-10.6-5.1c-2.5-3.3-3.7-7.8-3.7-13.6 0-5.9 1.2-10.5 3.7-13.7 2.6-3.3 6.1-5 10.7-5s8.1 1.7 10.6 5c2.4 3.3 3.7 7.8 3.7 13.7-.2 5.8-1.5 10.3-3.9 13.6z"/><path d="m359.5 32.1c1.4-1.1 2.9-1.8 4.6-2.2 1.6-.4 3.4-.6 5.2-.6l1.5-18.1h-7.3c-2.1 0-4 .1-5.7.2-1.7.2-3.3.4-4.7.8-1.5.4-2.9.8-4.3 1.4-2.1.9-4.2 2.3-6.1 4-1.9 1.8-3.6 3.7-5 5.9-1.4 2.1-2.5 4.4-3.4 6.8s-1.3 4.7-1.3 6.8l-.1 70.4h20.2v-49.2h11.1v-14.3h-10.5c.5-3 1.2-5.5 2.2-7.5 1-1.9 2.2-3.4 3.6-4.4z"/><path d="m410.7 93c-.4.2-.8.4-1.3.6s-1.1.4-1.7.5c-1.4.4-3 .5-4.7.5-2.9 0-5.1-.9-6.7-2.6-1.5-1.8-2.3-4.4-2.3-8v-26.1h16.3v-14.2h-16.3l-.1-20.5c-1.7.2-3.7 1.1-6 2.5-2.3 1.5-4.4 3.3-6.5 5.6-2 2.3-3.8 4.9-5.2 7.7s-2.2 5.7-2.2 8.7v38.7c0 7.6 2 13.2 5.9 16.9 3.9 3.8 9.6 5.7 17.4 5.7 3 0 5.8-.2 8.4-.5 1.3-.2 2.4-.4 3.3-.6s1.6-.3 2.1-.5z"/></g></svg>