<svg xmlns="http://www.w3.org/2000/svg" id="katman_1" data-name="katman 1" width="148.15mm" height="29.31mm" viewBox="0 0 419.95 83.07"><defs><style>      .cls-1 {        fill: #005cb9;      }      .cls-2 {        fill: #646463;      }    </style></defs><g><path class="cls-1" d="M29.84,21.77c3.79,0,7.24.72,10.33,2.15,3.09,1.43,5.75,3.41,7.95,5.92,2.21,2.52,3.91,5.44,5.11,8.77,1.2,3.33,1.8,6.89,1.8,10.68v32.16h-13.93v-32.16c0-3.87-1.35-7.08-4.06-9.64-2.63-2.63-5.8-3.95-9.52-3.95s-7.01,1.32-9.64,3.95c-2.63,2.63-3.95,5.84-3.95,9.64v32.16H0V23.4h13.93v4.41c2.09-1.78,4.45-3.23,7.08-4.35,2.63-1.12,5.57-1.68,8.82-1.68Z"></path><path class="cls-1" d="M121.55,23.28v58.16h-13.93v-29.02c0-4.64-1.63-8.59-4.88-11.84-3.25-3.25-7.2-4.88-11.84-4.88-2.25,0-4.39.43-6.44,1.28-2.05.85-3.85,2.05-5.4,3.6-3.25,3.25-4.88,7.2-4.88,11.84s1.63,8.48,4.88,11.73c1.55,1.63,3.35,2.84,5.4,3.66,2.05.81,4.2,1.22,6.44,1.22s4.41-.39,6.27-1.16l4.99,12.42c-3.56,1.78-7.7,2.67-12.42,2.67-4.26,0-8.19-.79-11.78-2.38-3.6-1.58-6.72-3.77-9.35-6.56-2.63-2.79-4.68-6.04-6.15-9.75-1.47-3.71-2.21-7.66-2.21-11.84s.73-8.24,2.21-11.96c1.47-3.71,3.52-6.97,6.15-9.75,2.63-2.79,5.75-4.97,9.35-6.56,3.6-1.58,7.53-2.38,11.78-2.38,3.79,0,7.16.58,10.1,1.74,2.94,1.16,5.53,2.63,7.78,4.41v-4.64h13.93Z"></path><path class="cls-1" d="M150.98,23.4c2.75-1.16,5.86-1.74,9.35-1.74v13.93c-4.64,0-8.59,1.63-11.84,4.88-3.25,3.41-4.88,7.35-4.88,11.84v29.14h-13.93V23.28h13.93v4.53c2.17-1.78,4.62-3.25,7.37-4.41Z"></path><path class="cls-2" d="M198.52,21.89c4.26,0,8.18.79,11.78,2.38,3.6,1.59,6.71,3.77,9.35,6.56,2.63,2.79,4.68,6.04,6.15,9.75s2.21,7.7,2.21,11.96-.74,8.13-2.21,11.84-3.52,6.97-6.15,9.75c-2.63,2.79-5.75,4.97-9.35,6.56-3.6,1.59-7.53,2.38-11.78,2.38-4.57,0-8.71-.89-12.42-2.67l4.99-12.42c1.86.77,3.95,1.16,6.27,1.16,4.72,0,8.67-1.62,11.84-4.88,3.25-3.25,4.88-7.16,4.88-11.73s-1.62-8.59-4.88-11.84c-3.25-3.25-7.2-4.88-11.84-4.88s-8.44,1.62-11.84,4.88c-3.25,3.25-4.88,7.2-4.88,11.84v29.02h-13.93V.18h13.93v27.86c2.24-1.78,4.84-3.25,7.78-4.41,2.94-1.16,6.31-1.74,10.1-1.74Z"></path><path class="cls-2" d="M288.26,23.4v58.05h-13.93v-4.41c-2.09,1.78-4.45,3.23-7.08,4.35-2.63,1.12-5.57,1.68-8.82,1.68-3.79,0-7.24-.72-10.33-2.15-3.1-1.43-5.75-3.38-7.95-5.86-2.21-2.48-3.91-5.38-5.11-8.71-1.2-3.33-1.8-6.89-1.8-10.68V23.4h13.93v32.28c0,3.64,1.35,6.81,4.06,9.52,2.63,2.63,5.8,3.95,9.52,3.95s7-1.31,9.64-3.95c2.63-2.63,3.95-5.8,3.95-9.52V23.4h13.93Z"></path><path class="cls-2" d="M295.81,81.45V.18h13.93v81.27h-13.93Z"></path><path class="cls-2" d="M371.74,23.4v58.05h-13.93v-4.41c-2.09,1.78-4.45,3.23-7.08,4.35-2.63,1.12-5.57,1.68-8.82,1.68-3.79,0-7.24-.72-10.33-2.15-3.1-1.43-5.75-3.38-7.95-5.86-2.21-2.48-3.91-5.38-5.11-8.71-1.2-3.33-1.8-6.89-1.8-10.68V23.4h13.93v32.28c0,3.64,1.35,6.81,4.06,9.52,2.63,2.63,5.8,3.95,9.52,3.95s7-1.31,9.64-3.95,3.95-5.8,3.95-9.52V23.4h13.93Z"></path><path class="cls-2" d="M409.93,81.45h-12.77c-2.63,0-5.11-.5-7.43-1.51-2.32-1.01-4.33-2.38-6.04-4.12-1.7-1.74-3.06-3.77-4.06-6.09-1.01-2.32-1.51-4.8-1.51-7.43V11.67l13.93-3.48v22.17h8.13l3.48,13.93h-11.61v18c0,1.47.5,2.71,1.51,3.72,1,1.01,2.21,1.51,3.6,1.51h9.29l3.48,13.93Z"></path></g><path class="cls-2" d="M417.83,12.36c-1.41,1.41-3.12,2.12-5.12,2.12s-3.71-.71-5.12-2.12c-1.41-1.41-2.12-3.12-2.12-5.12s.71-3.71,2.12-5.12c1.41-1.41,3.12-2.12,5.12-2.12s3.71.71,5.12,2.12c1.41,1.41,2.12,3.12,2.12,5.12s-.71,3.71-2.12,5.12ZM416.81,3.06c-1.12-1.15-2.49-1.72-4.1-1.72s-3,.57-4.12,1.72c-1.12,1.13-1.68,2.53-1.68,4.18s.56,3.05,1.68,4.18c1.12,1.15,2.49,1.72,4.12,1.72s2.98-.57,4.1-1.72c1.12-1.13,1.68-2.53,1.68-4.18s-.56-3.05-1.68-4.18ZM414.23,11.14l-1.6-3.1h-1v3.1h-1.44V3.32h2.94c.73,0,1.34.24,1.82.72.47.45.7,1.01.7,1.68,0,1.05-.51,1.76-1.54,2.12l1.74,3.3h-1.62ZM412.95,4.54h-1.32v2.36h1.32c.85,0,1.28-.39,1.28-1.18s-.43-1.18-1.28-1.18Z"></path></svg>